<svg width="26" height="26" viewBox="0 0 26 26" fill="none" xmlns="http://www.w3.org/2000/svg">
<path d="M13.9192 4.33334H12.0808C11.0655 4.33334 10.2424 5.10938 10.2424 6.06668C10.2424 7.16216 9.07029 7.85863 8.10813 7.33487L8.0104 7.28167C7.13111 6.80302 6.00677 7.08707 5.49911 7.91612L4.57992 9.41723C4.07226 10.2463 4.37353 11.3064 5.25282 11.785C6.21543 12.309 6.21543 13.691 5.25282 14.215C4.37353 14.6937 4.07226 15.7538 4.57992 16.5828L5.49911 18.0839C6.00677 18.9129 7.13111 19.197 8.0104 18.7183L8.10813 18.6652C9.07029 18.1414 10.2424 18.8379 10.2424 19.9333C10.2424 20.8906 11.0655 21.6667 12.0808 21.6667H13.9192C14.9345 21.6667 15.7576 20.8906 15.7576 19.9333C15.7576 18.8379 16.9297 18.1414 17.8918 18.6651L17.9896 18.7183C18.8688 19.197 19.9932 18.9129 20.5008 18.0839L21.42 16.5828C21.9277 15.7537 21.6264 14.6937 20.7471 14.215C19.7845 13.691 19.7845 12.309 20.7471 11.785C21.6264 11.3064 21.9277 10.2463 21.42 9.41724L20.5008 7.91613C19.9932 7.08709 18.8688 6.80304 17.9896 7.28168L17.8918 7.33488C16.9297 7.85864 15.7576 7.16216 15.7576 6.06668C15.7576 5.10938 14.9345 4.33334 13.9192 4.33334Z" stroke="#797C7B" stroke-width="1.5" stroke-linejoin="round"/>
<circle cx="13" cy="13" r="3.25" stroke="#797C7B" stroke-width="1.5"/>
</svg>
